<?xml version="1.0" encoding="utf-8"?>
<!-- Generator: Adobe Illustrator 15.0.3, SVG Export Plug-In . SVG Version: 6.00 Build 0)  -->
<!DOCTYPE svg PUBLIC "-//W3C//DTD SVG 1.1//EN" "http://www.w3.org/Graphics/SVG/1.1/DTD/svg11.dtd">
<svg version="1.1" id="Ebene_1" xmlns="http://www.w3.org/2000/svg" xmlns:xlink="http://www.w3.org/1999/xlink" x="0px" y="0px"
	 width="237.594px" height="482.191px" viewBox="0 0 237.594 482.191" enable-background="new 0 0 237.594 482.191"
	 xml:space="preserve">
<rect x="0.125" y="244.746" fill="#0063AC" width="115.125" height="115.133"/>
<path fill="#FFFFFF" d="M29.32,263.609v45.285c0,23.961,11.855,32.852,27.609,32.852c16.641,0,29.082-9.602,29.082-33.199v-44.938
	H75.977v45.621c0,16.914-7.414,24.422-18.711,24.422c-10.266,0-17.895-7.309-17.895-24.422v-45.621H29.32z"/>
<rect x="122.352" y="244.746" fill="#0063AC" width="115.125" height="115.133"/>
<path fill="#FFFFFF" d="M160.43,340.77c0,0-0.117-54.863-0.695-64.562l0.352-0.109c3.781,8.32,38.664,64.672,38.664,64.672h10.039
	v-76.883h-9.336c0,0,0.219,53.496,1.125,63.773l-0.352,0.102c-3.539-7.973-38.195-63.875-38.195-63.875h-10.957v76.883H160.43z"/>
<rect x="122.352" y="366.949" fill="#0063AC" width="115.125" height="115.125"/>
<path fill="#FFFFFF" d="M199.367,391.676c-4.582-4.109-11.75-6.398-21.574-6.398c-7.973,0-14.25,0.695-19.043,1.605v75.855h9.926
	v-30.797c2.297,0.566,5.02,0.676,7.992,0.676c9.699,0,18.238-2.887,23.48-8.438c4-4.016,6.047-9.492,6.047-16.434
	C206.195,400.887,203.574,395.312,199.367,391.676"/>
<path fill="#0063AC" d="M176.898,425.09c-3.203,0-6.055-0.234-8.223-0.793v-29.879c1.715-0.344,5.02-0.797,9.348-0.797
	c10.949,0,18.148,4.875,18.148,15.164C196.172,419.152,188.973,425.09,176.898,425.09"/>
<rect y="367.062" fill="#0063AC" width="115.133" height="115.129"/>
<path fill="#FFFFFF" d="M80.953,394.645c-6.73-6.27-16.867-9.48-31.129-9.48c-7.879,0-15.043,0.691-21.223,1.613v75.617
	c5.133,0.688,10.957,0.891,18.141,0.891c14.93,0,26.797-3.84,34.117-11.035c7.047-7.059,11.035-17.352,11.035-29.887
	C91.895,409.93,87.906,400.918,80.953,394.645"/>
<path fill="#0063AC" d="M48.68,455.336c-3.891,0-7.527,0-10.031-0.473v-60.789c2.625-0.562,6.508-1.012,11.625-1.012
	c20.984,0,31.266,11.293,31.141,29.64C81.414,443.457,69.887,455.438,48.68,455.336"/>
<rect x="0.125" fill="#0063AC" width="237.469" height="237.523"/>
<path fill="#FFFFFF" d="M203.832,123.668c-3.324,4.703-7.34,9.117-10.418,13.926c0.344-3.801,0.797-8.484-0.695-12.098
	c-2.555-7.75-4.805-15.625-5.516-24.141l0.07-3.258c1.934,8.699,10.484,14.688,9.938,24.438c0.195,2.371-0.539,4.359-0.973,6.449
	l0.152,0.152l0.387-0.434c1.262-4.777,1.895-9.816,3.863-14.281c2.805-6.414,6.289-12.898,4.867-20.652
	C209.773,102.914,208.496,115.121,203.832,123.668"/>
<path fill="#FFFFFF" d="M198.57,74.395c5.613,7.598,6.852,19.684,2.754,28.387c-1.5,3.699-2.59,7.629-3.184,11.711
	c-0.297-0.695-0.355-1.645-0.602-2.438c-2.227-8.512-10.289-14.586-13.617-22.625c-1.039-2.633-1.93-5.348-2.43-8.203
	c3.531,6.547,12.266,9.941,14.652,17.156c0.98,1.84,0.926,4.109,1.512,6.074c0.129,0,0.258-0.094,0.258-0.219
	c-1.043-7.441-0.734-15.227,0.289-22.562c-0.062-3.988-0.445-7.848-2.664-10.922C196.961,71.578,197.609,73.164,198.57,74.395"/>
<path fill="#FFFFFF" d="M194.625,72.941c1.477,6.648-0.66,13.133,0.695,19.844l-0.066,0.055
	c-3.613-7.109-11.297-10.465-16.582-16.164c-3.078-3.387-4.398-7.508-5.148-11.871c3.031,7.309,11.188,8.926,15.875,15.062
	c1.578,1.422,2.094,3.391,3.102,5.012l0.164-0.172c-2.703-5.754-3.617-12.246-5.461-18.379c-0.969-2.66-2.836-5.285-5.344-6.965
	C188.016,60.629,193.355,67.051,194.625,72.941"/>
<path fill="#FFFFFF" d="M178.168,57.684c4.645,4.145,6.738,9.531,8.109,15.102l0.75,1.766c-6.738-4.832-12.844-11.359-17.152-18.223
	l-5.258-5.324C169.242,52.965,174.219,54.137,178.168,57.684"/>
<path fill="#FFFFFF" d="M90.133,52.527c8.766-4.324,18.355-6.641,28.789-6.828c23.859,0.031,46.648,14.039,57.031,36.129
	c6.578,12.691,8.449,30.168,4.184,44.496c-4.34,16.93-18.582,34.055-35.168,41.02c-18.664,9.145-45.195,6.859-61.836-5.074
	C60,146.43,50.539,119.105,57.531,92.141C61.777,76.133,74.527,59.969,90.133,52.527"/>
<path fill="#FFFFFF" d="M71.832,51.902c-4.652,4.078-7.879,9.238-11.324,14.047c-3.102,3.824-7.051,6.355-10.578,9.648
	c1.906-3.922,1.977-8.609,4.664-12.211C58.426,56.699,65.516,54.363,71.832,51.902"/>
<path fill="#FFFFFF" d="M46.398,66.098c2.242-2.812,5.125-4.773,8.348-5.59c-6.246,4.293-5.855,12.02-7.848,18.449
	c-0.637,2.367-1.738,4.562-2.277,6.984l0.168,0.133c1.047-2.762,2.875-5.344,5.141-7.594c4.469-4.113,11.055-6.676,13.242-12.758
	c-0.094,8.453-7.16,15.086-13.891,19.844c-2.805,2.438-5.48,5.227-7.004,8.348c-0.16-2.117,0.324-4.266,0.164-6.543
	C41.711,79.996,41.176,71.574,46.398,66.098"/>
<path fill="#FFFFFF" d="M33.719,91.328C33.516,83.855,36.617,77.754,41,72.184c0.105-0.066,0.211-0.191,0.363-0.168
	c-4.805,7.312-0.832,16.523-1.043,24.848l-0.633,8.512c0.078,0.059,0.078,0.312,0.312,0.219c0.281-0.938,0.352-1.957,0.531-2.941
	c1.141-6.871,7.094-11.742,12.316-16.488c1.121-1.223,2.074-2.504,2.66-3.941c-0.41,3.406-1.492,6.855-2.914,10.023
	c-4.047,7.91-11.555,14.391-12.906,23.445C39.023,107.027,33.094,100.539,33.719,91.328"/>
<path fill="#FFFFFF" d="M30.055,101.957c0.539-2.336,0.969-4.75,1.977-6.895c-1.941,9.879,4.711,16.992,6.891,25.57
	c0.914,3.188,1.148,6.645,2.441,9.648c0.129,0.066,0.23-0.066,0.316-0.16c-3.258-9.109,1.422-17.562,6.133-24.684
	c1.141-1.934,1.812-4.086,2.375-6.289c0.5,4.109-0.527,8.863-1.141,13.129c-1.133,5.441-2.844,10.594-4.328,15.891
	c-0.988,3.281-0.73,7.016-0.219,10.465l-0.477-0.379c-3.469-6.359-10.289-11.324-12.305-18.285
	C30.031,114.426,28.922,108.012,30.055,101.957"/>
<path fill="#FFFFFF" d="M29.742,121.262c0.766,10.48,12.031,16.016,17.258,24.684c1.234,1.777,2.309,3.734,3.949,5.215
	c-0.258-1.102-1.293-2.055-1.676-3.191c-1.84-3.637-2.496-7.969-2.055-12.371c0.516-5.348,2.75-10.32,1.902-15.953
	c4.582,9.91,3.191,22.258,5.754,32.977c0.668,2.344,2.027,4.43,2.914,6.68c-9.438-6.43-22.285-12.539-26.469-24.305
	C29.555,130.941,29.367,125.914,29.742,121.262"/>
<path fill="#FFFFFF" d="M35.375,145.309c5.262,11.898,18.414,12.883,27.258,20.129c1.605,1.426,3.336,2.656,5.156,3.52l0.094-0.102
	c-2.039-1.836-4.367-3.922-5.797-6.297c-5.156-7.18-3.344-17.25-7.211-24.969c3.516,4.203,6.711,8.566,8.836,13.352
	c3.164,7.789,4.359,16.582,11.684,22.473c-7.934-2.594-17.191-1.863-24.16-6.738C43.613,161.992,36.805,154.047,35.375,145.309"/>
<path fill="#FFFFFF" d="M48.891,167.496c8.41,9.594,22.195,6.391,33.418,8.891c1.574,0.23,3.043,0.855,4.723,0.602
	c-1.336-0.852-3.195-0.754-4.656-1.516c-8.797-3.109-10.098-12.633-14.879-19.047c6.117,4.051,11.23,9.516,16.875,14.805
	c4.055,3.539,8.91,5.18,14.039,6.238c-1.223,0.438-2.848,0.312-4.172,0.66c-9.207,2.285-19.465,5.984-29.246,2.652
	C58.641,178.789,52.086,173.766,48.891,167.496"/>
<path fill="#FFFFFF" d="M163.262,189.832c-9.492,3.551-19.406-0.156-26.812-5.781c-2.996-1.91-5.652-4.66-9.551-4.395
	c-1.395-0.039-2.766,0.027-3.953,0.379c7.211,3.352,13.902,7.969,20.031,13.887c-1.043,1.168-2.367,2.273-3.633,3.289
	c-5.891-6.348-12.445-12.477-19.758-16.043c-1.414,0.184-2.789,1.043-4.07,1.727c-5.961,3.773-11.852,8.625-16.266,14.539
	l-3.812-3.133c6.078-6.133,12.797-10.914,20.125-14.34c-7.203-2.273-11.914,3.762-17.387,6.84
	c-6.398,4.461-15.574,6.551-23.309,3.48c-4.148-1.578-8.148-3.895-11.164-7.664c6.086,4.184,15.125,4.629,22.027,1.91
	c9.277-4.023,18.879-9.113,30.051-6.688c1.754,0.039,3.461,1.777,5.109,0.293c8.289-2.156,17.68-0.664,24.836,3.129l7.367,2.941
	c6.844,2.531,15.703,1.84,21.559-2.348C171.648,185.617,167.531,188.316,163.262,189.832"/>
<path fill="#FFFFFF" d="M173.453,180.031c-10.684,4.02-21.395-0.91-31.613-2.566l-1.965-0.258v-0.051
	c4.875-1.109,9.617-2.57,13.516-6.09c5.723-5.504,10.812-11.16,17.184-15.504c-4.723,6.051-5.215,14.652-13.008,18.543
	c-1.941,1.266-4.363,1.484-6.363,2.449c2.848,0.062,5.445-0.965,8.262-1.246c10.449-1.633,22.402,0.039,29.715-8.859
	C186.453,172.645,179.664,177.844,173.453,180.031"/>
<path fill="#FFFFFF" d="M179.359,169.176c-5.43,1.457-11.25,1.93-16.547,3.73c8.957-7.684,8.461-19.582,14.438-28.637
	c1.891-2.57,3.473-5.266,5.695-7.688c-3.629,7.309-2.062,16.766-6.234,23.859c-1.613,2.797-3.922,5.531-6.465,7.758
	c0.84-0.047,1.57-0.758,2.285-1.238c6.805-6.773,15.672-8.676,23.008-14.184c2.945-2.344,5.645-5.406,6.938-8.723
	C201.078,155.277,189.91,165.816,179.359,169.176"/>
<path fill="#FFFFFF" d="M192.816,150.027c-4.207,2.75-8.48,5.305-12.527,8.438v-0.359c6.211-10.32,3.164-24.477,6.984-35.797
	l1.43-3.797c-0.789,7.051,2.273,13.035,2.07,20.121c-0.234,4.277-1.625,8.074-3.875,11.484h0.375
	c3.039-3.977,5.422-8.215,8.969-12.023c5.504-5.309,11.102-10.75,11.832-18.125C209.938,132.273,203.039,143.055,192.816,150.027"/>
<path fill="#0063AC" d="M145.191,149.211l0.441-0.613c1.902-1.48,3.953-2.883,5.633-4.715h0.23c-0.395-0.121-0.871,0.258-1.301,0.07
	c-0.902-0.41-1.047-1.207-1.047-2.121l-3.891-4.023l-0.211-0.598c-0.297,0.762-0.875,1.234-1.43,1.793
	c0.027,0.516-0.16,1.281,0.449,1.621c1.262,0.414,2.906,1.242,3.188,2.723c-0.512,1.398-3.168,2.66-1.527,4.18
	C146.258,148.281,144.977,148.566,145.191,149.211"/>
<path fill="#0063AC" d="M122.562,97.844c0.734,0.406,1.137-0.344,1.758-0.504c0.875,0.094,1.562,0.859,2.102,1.422
	c0.562,0.25,1.109-0.094,1.613-0.281c0.355-2.629,3.645-2.25,4.621-4.711l-0.602,0.223c-0.25-0.355-0.879-0.199-0.844-0.762
	c0.531-0.523,1.23-1.312,1.891-1.523c-2.836-1.781-5.781-3.297-9.016-4.109c-1.266-0.297-2.602-0.328-3.805-0.766
	c0.609,1.805,0.078,4.457,0.453,6.555l2.262,0.75c0.684-1.102,2.133-1.312,2.762-2.367c0.406-0.348,0.883,0,1.211,0.379
	c0.105,0.852-0.129,1.707-0.387,2.527C125.727,96.391,123.699,96.598,122.562,97.844"/>
<path fill="#0063AC" d="M156.277,119.105c-1.336,4.246-2.887,8.387-5.551,12.09c-1.035,1.328-2.062,3.172-3.402,3.859l2.871,2.535
	c0.152-0.156,0.062-0.414,0.105-0.629c0-0.379,0.176-0.824,0.652-0.77c1.387-0.027,1.414,1.461,2.211,2.223
	c-0.168,1.203,0.887,2.152,0.535,3.262c7.98-8.422,11.973-18.734,12.703-30.16l0.434-0.504c-2.848,0.277-5.852,0.082-8.789,0.125
	l-0.703-0.215c0.199,1.926-0.316,3.793-0.434,5.691l1.027,1.133c0.305,0.445,0.195,1.113-0.211,1.453
	C157.273,119.496,156.711,119.465,156.277,119.105"/>
<path fill="#0063AC" d="M148.664,91.098c-1.062-2.02-2.77-3.824-4.234-5.629l-0.152,0.391c-2.918,3.027-6.117,6.16-8.895,9.27
	c0.18,0.371,0.492,0.727,0.859,0.91c0.113-0.754,0.535-1.426,0.605-2.215c0.746-1.039,1.898-0.379,2.871-0.156
	c1.516-0.352,2.941,0.352,4.492,0.328c1.145,0.555,1.242,2.016,2.289,2.582c0.281,0.402,0.055,0.891-0.324,1.207
	c0.324,2.371,1.453-0.637,2.66-0.062c0.5,0.188,1.137,0.121,1.508,0.656c0.191,0.984,1.398,0.805,1.461,1.742
	c-0.098,0.469-0.602,0.602-0.938,0.863c0.305,0.941-0.953,1.543-0.523,2.555c1.836,0.348,1.902-1.777,2.75-2.719
	c-0.469-1.637-0.82-3.324-1.758-4.781c-1.039-0.215-1.668-1.457-2.723-1.672C146.586,93.566,148.93,92.309,148.664,91.098"/>
<path fill="#0063AC" d="M120.438,157.184c2.348-0.793,5.07-0.672,7.602-1.082c-0.5-0.191-1.016-0.305-1.398-0.82
	c-1.484-0.098-2.188-1.637-2.648-2.824c-0.227-0.84,0.352-1.539,0.695-2.273c-0.625-1.293-2.594-0.359-3.742-0.82
	c-0.312-0.258-0.539-0.641-0.973-0.707l0.465,0.707C120.438,151.961,120.758,154.617,120.438,157.184"/>
<path fill="#0063AC" d="M122.477,132.492c0.82,0.156,0.238,1.051,0.844,1.371c1.293-0.422,2.289,1.098,3.32,0.148
	c-0.055-1.488,1.629-1.363,2.539-1.742c1.434-0.852,3.039-1.992,2.883-3.891l-0.242-0.277c-0.977,0-1.477,0.754-2.188,1.352
	c-0.906,0.516-1.352-0.949-2.07-0.598c0.031,0.156,0.191,0.227,0.328,0.281c0.172,0.23,0.242,0.699,0,0.93
	c-1.086,0.977-1.59-0.488-2.609-0.395v0.395c0.039,0.211-0.059,0.562-0.367,0.43c-0.648-1.043-1.941-0.66-2.578-1.57
	c-0.398-0.223-0.789,0.059-1.07,0.309c-0.219,0.48-1.234-0.059-0.984,0.77c-0.781,0.273-0.871,1.125-1.445,1.637
	c-0.996-0.168-1.422,0.949-2.352,0.926c0.094,0.184,0,0.504,0.277,0.527c0.582,0.254,1.148,0.309,1.852,0.223
	C119.555,131.805,121.145,133.07,122.477,132.492"/>
<path fill="#0063AC" d="M131.828,120.129c0.047,0.469,0.117,1.102,0.516,1.504c1.234-0.18,0.707,1.523,1.836,1.375
	c0.641-0.191,0.043-0.73,0.219-1.141c-0.176-0.953-1.102-1.051-1.742-1.621c-0.07-0.184,0.07-0.344,0.148-0.496
	C132.344,119.492,132.125,119.781,131.828,120.129"/>
<path fill="#0063AC" d="M130.391,76.449c-3.211-1.133-6.711-1.617-10.203-2.141l0.32,0.691l-0.066,8.57l0.832-0.16
	c5.242,0.723,10.047,2.41,14.203,5.789l0.227,0.672c1.402-2,3.562-3.711,5.234-5.602l1.594-0.922l-0.762-0.312
	C138.281,80.125,134.504,77.918,130.391,76.449"/>
<path fill="#0063AC" d="M71.527,111.77l0.691,5.828c0.273,2.242,1.266,4.395,1.195,6.609c0.344-0.473,0.129-1.43,0.992-1.523
	c-0.359-0.691,0.66-1.289,0.086-1.895c0.281-1.516,0.461-3.074,1.805-4.172c1.625-0.07,1.742-2.199,3.359-2.293
	c0.82-0.031,1.328,1.078,1.691,1.457c-1.027-1.223-0.973-3.25-0.715-4.648l-0.695,0.324c-2.945-0.066-6.008,0.172-8.797-0.227
	L71.527,111.77z"/>
<path fill="#0063AC" d="M128.27,126.578c0.75-0.789,2.348-0.754,2.418-1.891c-1.105-0.176-1.668,0.434-2.418,1.039
	C128.164,125.965,127.82,126.41,128.27,126.578"/>
<path fill="#0063AC" d="M148.398,110.699l0.969,0.973c0.977,0.664,0.324,2.082,1.359,2.656c1.227,0.629,1.68,2.059,2.227,3.133
	c0.184-0.281,0.184-0.629,0.281-0.918c0.438-1.738,0.371-3.695,0.91-5.406C152.242,111.23,150.055,111.418,148.398,110.699"/>
<path fill="#0063AC" d="M135.633,132.871c1.074,0.281,1.812,1.621,3.16,1.207c1.145-0.637,3.043,0.379,3.801-0.824
	c-0.121-1.172,0.891-2.027,1.402-3.035l0.371-0.098c0.637,0.66,0.602,1.652,0.891,2.371c0.875-0.945,1.574-1.996,2.371-2.969
	c2.086-3.043,3.867-6.301,4.617-9.773c-0.848,0.027-1.707,0.172-2.488,0.43c-0.922-0.051-2.035,0.48-2.828-0.156
	c-0.273-0.246-0.473,0.133-0.43,0.387c-0.328,0.473-0.648,1.066-1.375,0.852c-0.566-0.254-0.566-0.852-0.758-1.297
	c0.031,0.352-0.09,0.664-0.16,0.98c-0.656,0.688-0.891,1.363-1.355,2.117c-0.664,0.73-1.738,0.473-2.441,1.074
	c-0.129,1.523-1.805,1.199-2.754,1.688c-0.062,0.184,0.156,0.211,0.25,0.375c0.453,0.125,1.051,0.125,1.367-0.32
	c1.328,0.355,1.043-1.32,1.816-1.898c0.66-0.094,1.293-0.66,1.973-0.211c0.711,0.844,0.863,2.078,0.766,3.188
	c-0.766,0.754-0.371,1.992-0.914,2.879c0.121,1.051-1.145,1.52-0.98,2.566c-0.402,0.469-1.113,0.543-1.746,0.543
	c-2.484-0.949-5.125-1.559-7.91-1.816c-0.254,0.098-0.41,0.32-0.375,0.609C133.051,132.34,134.434,132.371,135.633,132.871"/>
<path fill="#0063AC" d="M116.762,160.598l0.328-0.48l-0.984,0.258c-12.34-0.848-23.254-5.211-32.27-13.93l-0.102,0.383l-6.516,6.551
	c9.867,8.551,21.008,14.059,33.727,15.801c2.031,0.34,4.352,0.152,6.297,0.754l-0.48-0.754V160.598z"/>
<path fill="#0063AC" d="M104.012,126.48c3.398,2.797,7.191,4.523,11.402,5.258c0.219-0.852-0.125-1.926,0.316-2.656
	c0.316-0.703,1.16-0.672,1.805-0.551c0.375-0.027,0.609-0.496,0.375-0.824c-0.914-0.176-0.492-1.191-0.824-1.766
	c0.047-0.312,0.578-0.25,0.449-0.668c-0.645-0.504,0.309-1.066-0.223-1.605c0.152-0.109,0.27-0.297,0.43-0.402
	c-1.918,0.805-3.957-0.367-5.648-1.117c-0.836-0.488-2.031-0.945-2.211-1.969C108.523,122.395,105.91,124.422,104.012,126.48"/>
<path fill="#0063AC" d="M100.758,116.613c-0.309-0.164-0.352-0.125-0.602,0.148c-0.152,0-0.344,0.039-0.469-0.055
	c0-1.805-2.027-0.727-2.781-1.668c0.883,1.629,1.359,3.504,2.266,5.141c0.578,1.457,1.836,2.602,2.414,4.027
	c0.598-1.141,1.805-2.059,2.664-3.105c0.062-0.469-0.039-0.887-0.309-1.23c-0.27-0.672-0.012-1.613-0.535-2.18
	c-0.805,0.285,0.301,1.102-0.055,1.586c-0.344,0.219-0.727-0.078-0.75-0.391c-0.734-0.117-1.305-0.762-1.531-1.426
	C101.68,117.082,100.918,116.922,100.758,116.613"/>
<path fill="#0063AC" d="M106.836,117.531c-0.199,0.785-0.727,1.477-1.305,2.051l0.098,0.062c0.762-0.543,1.312-1.512,2.285-1.574
	L106.836,117.531z"/>
<path fill="#0063AC" d="M116.016,148.289c-7.695-0.383-14.43-3.195-20.414-7.668c0.188,0.758,1.195,1.25,0.914,2.191
	c-0.539,0.863-1.645,0.879-2.523,0.863c-1.816-0.293-3.148,1.074-4.84,1.254c-1.559,0.48-2.098-1.422-3.516-1.254
	c8.789,7.676,18.848,12.484,30.633,13.121l0.887,0.602l-0.391-1.074v-8.359L116.016,148.289z"/>
<path fill="#0063AC" d="M81.84,144.172c-1.082-0.762-2.039-1.988-2.941-3.043c-1.047-0.281-2.133-1.008-2.664-2.016
	c-0.312-0.359-0.023-0.977-0.371-1.234l-0.398,0.473c-1.105,0.535-1.5-0.605-2.262-1.074c-0.992-0.531-0.504-2.406-1.844-2.062
	c-0.5-0.023-0.664-0.594-0.98-0.906c-1.223,0.117-1.547-1.242-2.215-1.902c-0.129,0.285,0,0.66-0.375,0.848
	c-1.273,0.289-1.703-1.262-2.57-1.902c-0.227,0.098-0.375,0.363-0.703,0.293c-0.746-0.664-1.258-1.621-1.297-2.656
	c-1.039-1.188-0.562-3.043-0.367-4.473c0.191-0.379,0.734-0.594,0.625-1.066c0.293-0.668,0.992-0.734,1.656-0.766
	c0.254,0.133,0.508,0.379,0.625,0.609c0.414-0.258,1.34,0.023,0.984-0.895c0.531-0.469,1.336-0.637,2.066-0.762
	c0.504,0.641,0.75,1.367,1.426,1.961l-0.441-0.691c-0.762-3.102-1.359-6.262-1.535-9.621c0.035-0.188-0.391-0.281-0.152-0.465
	l0.059,0.09c0.039-0.699-0.016-1.301,0.094-1.773l-0.852,0.32l-8.797-0.062c0.508,10.117,3.191,19.328,7.758,27.785
	c2.242,4.172,5.535,7.934,8.406,11.832l6.297-6.523L81.84,144.172z"/>
<path fill="#0063AC" d="M91.961,70.285c-1.965,1.359-3.766,3.133-5.789,4.336c2.348,1.48,4.273,3.961,6.391,5.91l0.223,0.605
	c5.387-5.156,11.93-8.16,18.996-9.617c1.664-0.168,3.352-0.73,4.98-0.375c-0.113-3.016-0.379-6.148-0.066-9.129
	C107.527,62.562,99.32,65.344,91.961,70.285"/>
<path fill="#0063AC" d="M84.43,103.32c-0.344,1.52-0.152,3.285-0.762,4.715c1.121-0.516,2.723-0.316,3.957-0.16
	c-0.719-0.379-0.113-1.293-0.539-1.809c-0.094-0.777-0.227-1.762,0.539-2.277c-0.086-1.297,1.293-1.961,1.434-3.133
	c0.34-1.324,1.855-0.43,2.59-1.133c0.477-0.258,0.062-0.695,0.062-1.043c0.633-0.867,1.617-0.824,2.367-1.305
	c0.547-0.82,1.242-1.707,2.125-2.199c1.902,0.059,1.938-2.605,3.734-2.672c-2.465-1.867-4.809-4.363-6.992-6.523
	C88.586,91.008,85.602,96.762,84.43,103.32"/>
<path fill="#0063AC" d="M85.637,116.16c0.09-0.57-0.754-0.719-0.676-1.289c0.609-1.176,0.031-3.07,1.59-3.578
	c-1.102,0.188-2.086,0.41-3.027-0.281l0.449,0.758c0.074,2.086,0.91,4.078,0.457,6.203C84.789,117.371,84.883,116.547,85.637,116.16
	"/>
<polygon fill="#0063AC" points="94.359,139.004 94.242,138.789 94.359,139.18 "/>
<path fill="#0063AC" d="M83.832,77.27l-3.422,4.352c-5.598,7.68-8.262,16.57-9.051,26.258l8.676-0.164l0.82,0.324
	c-0.348-0.234-0.262-0.605-0.379-0.918c0.703-9.023,3.859-17.059,10.086-23.773c-2.398-2.078-4.648-4.297-6.684-6.672L83.832,77.27z
	"/>
<path fill="#0063AC" d="M110.562,136.449c0.695-0.738,1.516-1.23,2.375-1.547c-2.809,0.574-5.289-1.453-7.684-2.562
	c-1.363-1.016-3.137-1.84-3.957-3.355c-1.875,2.277-4.082,4.648-6.289,6.453c0.965,0.062,1.516,1.145,2.336,1.621
	c4.75,3.949,10.664,5.855,16.16,7.211l-1.5-0.703c-1.148-1.289-2.766-2.812-2.824-4.609
	C110.316,138.566,110.188,137.309,110.562,136.449"/>
<path fill="#0063AC" d="M88.918,111.293l-0.246,1.672c-0.387,0.988-1.617,0.25-2.18,0.926c-0.41,0.629,0.016,1.293,0.367,1.797
	c-0.883,2.027,2.008,2.668,1.965,4.496c0.891,1.141-0.121,2.781,1.148,3.797c0.277,2.059-0.285,4.848,1.52,6.457l0.32,1.969
	c0.367,1.355-1.625,1-1.367,2.211c0.395-0.191,0.469,0.32,0.508,0.441v-0.062c2.438-2.812,5.25-5.789,8.125-8.285l-1.195-1.207
	c-2.25-3.359-4.02-6.938-4.875-10.859l-0.914-0.469c-0.039,1.008-0.516,1.801-0.445,2.812l-0.316,0.379
	c-0.66-0.023-1.082-0.566-1.645-0.918c-0.137-0.348-0.484-0.91,0.062-1.195c0.316-0.027,0.531,0.062,0.766,0.211
	c0.277-0.344,0.156-0.844,0.324-1.289c0.074-0.762-0.59-1.457-0.117-2.125c0.609-0.059,1.055,0.668,1.301,1.074
	c0.609,0.188,1.086-0.305,1.586-0.535c0-0.539,0.75-1.27-0.07-1.578c0.453-1.238,0.133-2.535-0.07-3.734
	c-0.332-1.047-1.508-0.859-2.359-0.762c-2.566,0.816,0.414,2.754-0.219,4.332C90.531,111.77,89.586,110.918,88.918,111.293"/>
<path fill="#0063AC" d="M170.023,111.137l-0.527-0.383l0.309,0.855c-0.496,10.535-4.012,19.836-10.039,28.113
	c-1.156,1.383-2.25,3.086-3.723,4.07c2.414,1.895,5.074,4.746,7.055,6.938l0.246-0.477c9.691-11.047,15.195-23.844,15.797-38.645
	l0.387-0.758l-0.473,0.23L170.023,111.137z"/>
<path fill="#0063AC" d="M84.277,72.395l0.152-0.438c9.242-8.414,20-13.039,32.332-13.609l-0.277-0.754l-0.098-7.605l0.262-0.879
	c-12.727,0.504-24.023,4.84-34.039,12.055c-1.941,1.332-3.648,3.352-5.609,4.5h0.27C79.781,67.488,82.156,70.121,84.277,72.395"/>
<path fill="#0063AC" d="M116.336,74.551c-8.039,0.578-15.016,3.922-21.117,8.965c2.414,1.66,4.555,4.355,6.742,6.281
	c0.156-0.211,0.32-0.434,0.477-0.691c3.008-2.141,6.121-4.102,9.66-4.992c1.566-0.164,3.129-0.914,4.77-0.547
	c-0.34-2.977-0.34-6.258,0-9.328L116.336,74.551z"/>
<path fill="#0063AC" d="M116.762,87.082c-5.086,0.668-9.773,2.41-13.5,6.363h0.684c0.77,0.762,1.992,0.602,2.574,1.621
	c0.285,0.57-0.543,0.504-0.512,0.973c0.164,0.137,0.391,0.16,0.512,0.379c0.598,0.211,0.469-0.344,0.703-0.594
	c0.777-0.789,0.914,0.758,1.668,0.758c0.539-0.352,1.297-0.383,1.672,0.219c0.516-0.445,1.594-0.039,1.75-0.848
	c0.992-1.051,0.445-2.656,1.898-3.324c0.508,0.273-0.031,0.758,0.16,1.203c0.973,0.406,2.082-0.832,2.871,0.16
	C116.527,91.93,116.695,89.359,116.762,87.082"/>
<path fill="#0063AC" d="M117.09,101.266c-0.941,1.574-2.527,1.926-4.012,2.371c-0.418,0.504-0.32,1.617-1.297,1.512
	c-0.316,0.707-1.395,1.113-0.984,2.129c-0.516,1.07-0.27,2.469-0.539,3.641c-1.867,1.172-1.344-1.555-2.273-2.125l-0.336,0.539
	c-0.355,0.094-0.613-0.129-0.875-0.375c-0.281-0.117-0.766-0.203-1.016,0.062c-0.41,0.699-1.043,1.266-0.883,2.211
	c-0.188,0.562-1.141,0.375-1.008,0.984c1.047-0.031,2.172-0.219,3.191-0.445c0.738,0.188,1.332-0.348,2.062-0.375
	c0.238,0.125,0.551,0.375,0.441,0.754h0.258c0.496-0.379,0.707-0.961,0.496-1.512c0.07-0.672,0.797-0.672,1.23-0.863
	c0.41,0.191,0.156,0.598,0.234,0.93c1.418,0.527-0.352,1.574-0.551,2.328c-0.375,0.605,0,1.969-1.195,1.777
	c-0.215-0.062-0.363-0.289-0.309-0.547h-0.164c-0.031,0.516,0.352,1.203,0.852,1.426c0.875-0.727,0.91-1.961,2.195-2.121
	c0.648-0.691-0.297-1.773,0.695-2.336c1.641-0.043,3.391-0.73,4.703,0.594c-0.098,0.57-0.309,0.84,0.164,1.305
	c-0.328,0.727-0.531,1.516-1.141,2.125c0.152,0.406,0.035,0.91-0.336,1.195c-0.43,1.934-2.641,1.008-3.938,1.684
	c1.992,1.512,4.398,2.078,6.984,1.895c1.359-0.062,0.766-1.742,1.461-2.496c0.438-2.215,2.473-0.703,3.711-1.305
	c0.469-0.941,0.945-1.863,1.062-2.938c-0.781-0.504-1.094-1.465-0.848-2.371c-0.535-0.73-0.48-2.062-1.66-2.191
	c-0.168-0.25-0.027-0.578,0.137-0.75c-0.023-0.699,0.66-0.922,0.855-1.461c-0.719-0.473-0.531-1.52-0.477-2.129
	c-1.242,0.359-1.359-1.254-2.277-1.602c-0.223-0.734-1.012-0.859-1.641-0.98c-1.523,0.727-1.77-1.145-2.91-1.586
	c-0.125-0.348-0.395-0.855,0-1.137c0.57-0.484,1.32-0.066,1.984-0.105l-0.527-0.281c-0.504-0.566-1.617-0.215-2.277,0
	C116.969,99.332,116.695,100.473,117.09,101.266"/>
<path fill="#0063AC" d="M68.32,107.977l-0.215-1.242c0.605-10.098,3.824-19.082,9.496-27.113c1.414-1.621,2.461-3.637,4.238-4.848
	c-2.059-1.926-4.199-4.176-6.371-6.293l-0.215-0.859c-9.027,10.031-14.582,21.484-16.199,34.559c-0.359,1.902-0.117,3.859-0.5,5.797
	C61.711,107.719,65.152,107.719,68.32,107.977"/>
<path fill="#0063AC" d="M153.934,145.793c-0.902,1.734-2.859,2.836-4.348,4.176c-2.055,2.059-5.406,2.496-6.457,5.477
	c-1.102,1-1.477,2.586-3.023,3.152c-0.586,1.523-2.199,1.43-3.113,2.531c-2.652,2.375-4.367-1.512-6.773-1.98L125.383,160
	c-1.684,0-3.359,0.598-4.945,0.059c0.234,3.219,0.234,6.703,0,9.938l0.602-0.383c15.258-0.656,28.418-6.453,39.715-16.707
	l-6.668-6.363L153.934,145.793z"/>
<path fill="#0063AC" d="M120.281,57.52c0-0.281,0.125-0.527,0.297-0.742c0.445-0.266,0.805,0.125,0.988,0.43
	c0.047,0.449,0.238,1.215-0.141,1.469c0.379,0.055,0.582-0.227,0.91-0.227c7.246,0.539,13.961,2.652,19.977,6.07v-0.152
	c1.238-0.605,2.812-1.395,4.078-0.32c1.523-0.566,1.801,1.297,3.039,1.516c1.492,0.887,3.172,2.543,3.359,4.277
	c0.273,0.578,1.168,0.977,1.297,1.586c1.016-2.152,3.035-3.68,4.789-5.543l1.059-0.449c-9.551-9.105-20.906-14.141-33.582-15.879
	c-2.008-0.348-4.242-0.16-6.164-0.762C120.578,51.293,120.465,54.715,120.281,57.52"/>
<path fill="#0063AC" d="M120.281,71.137c1.203-0.418,2.434,0.098,3.641,0.129c6.203,1.012,12.07,3,17.016,6.832
	c-0.586-0.637-1.32-1.355-1.453-2.281c0.109-0.125,0.227-0.152,0.387-0.125c0.066-0.984-0.98-1.488-1.125-2.375
	c0.145-0.18,0.375-0.371,0.691-0.281c1.066,1.016,1.977,2.125,2.777,3.25c0.703-0.277,1.266,0.168,1.781,0.539
	c0.91,0.539,0.348,1.719,1.051,2.348c0.117,1.871,2.395,2.918,2.273,4.777c0.016,0.441,0.562,0.094,0.754,0.324l1.898,2.332
	c-0.352,0.453-0.059,0.992,0.328,1.289c0.844,0.398,1.324-0.688,2.16-0.527c1.234,0.699-0.18,1.52-0.062,2.277
	c0.48,0.027,1.09-0.375,1.469,0.098c0.16,0.699-0.57,1.141-0.871,1.586c0,0.691,0.582,0.539,1.09,0.691
	c0.562-0.027,0.922,0.672,0.762,1.145c1.582,1.645-0.48,3.414,0.281,5.16c0.496,1.129-0.121,2.238-0.832,3.098
	c0.039,1.395-1.234,2.242-1.723,3.418l-1.621,0.312c-0.863,0.852,0.734,1.902-0.133,2.441l3.547,0.066l-0.387-0.375
	c-0.492-1.391-0.379-3.273,0.48-4.5c0.547-1.141,0.668-2.508,1.68-3.484c0.219-0.059,0.629-0.473,0.82,0
	c0.07,1.074-0.027,2.305-0.531,3.258c1.016,1.453,0.879,3.355,0.973,5.156c3.137-0.191,6.207-0.246,9.281-0.219l-0.281-0.605
	c-0.48-5.848-1.676-11.395-4.121-16.387c-0.664,0.039-1.141,0.566-1.898,0.379c-0.25-0.09-0.414-0.34-0.379-0.629
	c-1.266-1.203-2.066-2.785-3.473-3.871c-1.637,0.164-2.359-1.707-3.816-1.895c-1.289-0.539-0.398-2.629-2.273-2.051
	c-0.914-0.387-1.809-1.082-1.992-2.125c0-1.645-0.316-3.422-1.793-4.496c-1.148-0.41-1.609,1.105-2.766,0.859
	c-0.625-0.324-0.34-1.141-0.547-1.676c-0.215-0.48-0.75-0.824-0.656-1.461c1.484-1.957-1.805-1.922-1.078-3.859
	c-0.195-1.395-1.602-1.938-2.336-3.035c-4.91-2.219-9.812-3.727-15.352-4.398c-1.359-0.195-2.617,0.094-3.789-0.535l0.305,0.59
	C120.371,65.246,120.578,68.379,120.281,71.137"/>
<path fill="#0063AC" d="M154.895,74.395c0.676,0.156,0.867,0.945,1.316,1.422c2.297,1.234,2.898,3.707,4.93,5.094
	c1.141,2.387,3.766,4.211,3.859,6.934c2.75,6.082,4.617,12.508,4.805,19.66l-0.242,0.371c0.281,0,0.531-0.125,0.75-0.277
	l9.121-0.168c-0.598-0.883-0.348-2.176-0.512-3.254c-1.203-14.082-7.211-26.145-16.641-36.773c-1.75,2.344-4.117,4.523-6.297,6.77
	L154.895,74.395z"/>
<path fill="#FFFFFF" d="M121.566,56.016c0.277-0.504,1.004-0.324,1.383-0.164l4.551-1.957c1.828,0.152,3.852,0.375,4.941,1.898
	v0.223c-1.145,0.941-2.598,1.699-4.113,1.066c-2.094,0.414-5.008,1.617-6.691-0.531C121.566,56.395,121.379,56.168,121.566,56.016"
	/>
<path fill="#FFFFFF" d="M148.766,61.766c0.625,0.199,1.207,0.48,1.43,1.152c-0.176,0.707,0.668,1.32,0.152,1.887
	c-1.715,0.445-1.871-1.48-3.191-1.957c-0.188-0.258-0.25-0.578-0.227-0.922C147.535,61.199,148.098,62.406,148.766,61.766"/>
</svg>
